<?xml version="1.0" encoding="UTF-8"?>
<svg id="Layer_1" data-name="Layer 1" xmlns="http://www.w3.org/2000/svg" viewBox="0 0 48 48">
  <defs>
    <style>
      .cls-1 {
        fill: #522193;
      }

      .cls-2 {
        fill: #fff;
      }
    </style>
  </defs>
  <rect class="cls-1" width="48" height="48"/>
  <path class="cls-2" d="M36.58,36.72h-7.48l-4.79-6.81h-4.28v6.81h-6.99v-12.12h11.11c1.62,0,2.85-.35,3.67-1.04.83-.69,1.24-1.66,1.24-2.89s-.41-2.25-1.24-2.94-2.05-1.04-3.67-1.04h-11.11v-5.4h11.59c3.51,0,6.3.83,8.36,2.48,2.06,1.65,3.1,3.95,3.1,6.9,0,1.92-.47,3.57-1.42,4.96-.9,1.32-2.15,2.35-3.74,3.09l5.64,8.02Z"/>
</svg>